<svg width="20" height="20" viewBox="0 0 20 20" fill="none" xmlns="http://www.w3.org/2000/svg">
<path d="M3 6.98372V14.9946M7.5 6.98372V14.9946M12.5 6.98372V14.9946M17 6.98372V14.9946M1 16.5967L1 17.3978C1 17.9586 1 18.239 1.10899 18.4532C1.20487 18.6417 1.35785 18.7949 1.54601 18.8909C1.75992 19 2.03995 19 2.6 19H17.4C17.9601 19 18.2401 19 18.454 18.8909C18.6422 18.7949 18.7951 18.6417 18.891 18.4532C19 18.239 19 17.9586 19 17.3978V16.5967C19 16.0359 19 15.7555 18.891 15.5413C18.7951 15.3529 18.6422 15.1997 18.454 15.1037C18.2401 14.9946 17.9601 14.9946 17.4 14.9946H2.6C2.03995 14.9946 1.75992 14.9946 1.54601 15.1037C1.35785 15.1997 1.20487 15.3529 1.10899 15.5413C1 15.7555 1 16.0359 1 16.5967ZM9.65291 1.05281L2.25291 2.69948C1.80585 2.79897 1.58232 2.84871 1.41546 2.96908C1.26829 3.07525 1.15273 3.21951 1.08115 3.38641C1 3.57562 1 3.80492 1 4.2635L1 5.38154C1 5.94236 1 6.22276 1.10899 6.43696C1.20487 6.62538 1.35785 6.77857 1.54601 6.87457C1.75992 6.98371 2.03995 6.98371 2.6 6.98371H17.4C17.9601 6.98371 18.2401 6.98371 18.454 6.87457C18.6422 6.77857 18.7951 6.62538 18.891 6.43696C19 6.22276 19 5.94236 19 5.38154V4.2635C19 3.80492 19 3.57562 18.9188 3.38641C18.8473 3.21951 18.7317 3.07525 18.5845 2.96908C18.4177 2.84871 18.1942 2.79897 17.7471 2.69949L10.3471 1.05281C10.2176 1.02399 10.1528 1.00957 10.0874 1.00383C10.0292 0.998724 9.97077 0.998724 9.91264 1.00383C9.8472 1.00957 9.78244 1.02399 9.65291 1.05281Z" stroke="white" stroke-width="2" stroke-linecap="round" stroke-linejoin="round"/>
</svg>
