<svg width="20" height="20" viewBox="0 0 20 20" fill="none" xmlns="http://www.w3.org/2000/svg">
<path d="M19 19V17C19 15.1362 17.8527 13.5701 16.3 13.126M13.15 1.29076C14.4693 1.88415 15.4 3.32131 15.4 5C15.4 6.67869 14.4693 8.11585 13.15 8.70924M14.5 19C14.5 17.1362 14.5 16.2044 14.226 15.4693C13.8606 14.4892 13.1598 13.7105 12.2777 13.3045C11.6161 13 10.7774 13 9.1 13H6.4C4.72261 13 3.88392 13 3.22234 13.3045C2.34024 13.7105 1.63941 14.4892 1.27403 15.4693C1 16.2044 1 17.1362 1 19M11.35 5C11.35 7.20914 9.73822 9 7.75 9C5.76177 9 4.15 7.20914 4.15 5C4.15 2.79086 5.76177 1 7.75 1C9.73822 1 11.35 2.79086 11.35 5Z" stroke="white" stroke-width="2" stroke-linecap="round" stroke-linejoin="round"/>
</svg>
