<svg width="20" height="20" viewBox="0 0 20 20" fill="none" xmlns="http://www.w3.org/2000/svg">
<path d="M6 15.1565H14M9.0177 1.4777L2.23539 6.54638C1.78202 6.8852 1.55534 7.05461 1.39203 7.26677C1.24737 7.4547 1.1396 7.66641 1.07403 7.89151C1 8.14563 1 8.42157 1 8.97345V15.9252C1 17.0015 1 17.5396 1.21799 17.9507C1.40973 18.3123 1.71569 18.6063 2.09202 18.7905C2.51984 19 3.07989 19 4.2 19H15.8C16.9201 19 17.4802 19 17.908 18.7905C18.2843 18.6063 18.5903 18.3123 18.782 17.9507C19 17.5396 19 17.0015 19 15.9252V8.97345C19 8.42157 19 8.14563 18.926 7.89151C18.8604 7.66641 18.7526 7.4547 18.608 7.26677C18.4447 7.05461 18.218 6.8852 17.7646 6.54638L10.9823 1.4777C10.631 1.21514 10.4553 1.08386 10.2613 1.03339C10.0902 0.988868 9.9098 0.988868 9.73865 1.03339C9.54468 1.08386 9.36902 1.21514 9.0177 1.4777Z" stroke="white" stroke-width="2" stroke-linecap="round" stroke-linejoin="round"/>
</svg>
