<svg width="20" height="20" viewBox="0 0 20 20" fill="none" xmlns="http://www.w3.org/2000/svg">
<path d="M1 5.68047C1 4.04215 1 3.22299 1.32698 2.59724C1.6146 2.04681 2.07354 1.5993 2.63803 1.31884C3.27976 1 4.11984 1 5.8 1H14.2C15.8802 1 16.7202 1 17.362 1.31884C17.9265 1.5993 18.3854 2.04681 18.673 2.59724C19 3.22299 19 4.04215 19 5.68047V10.946C19 12.5843 19 13.4035 18.673 14.0292C18.3854 14.5797 17.9265 15.0272 17.362 15.3076C16.7202 15.6265 15.8802 15.6265 14.2 15.6265H11.6837C11.0597 15.6265 10.7477 15.6265 10.4492 15.6862C10.1844 15.7392 9.9282 15.8268 9.68749 15.9467C9.41617 16.0819 9.17252 16.272 8.68521 16.6521L6.29976 18.5129C5.88367 18.8375 5.67563 18.9998 5.50054 19C5.34827 19.0002 5.20422 18.9327 5.10923 18.8166C5 18.6832 5 18.4234 5 17.9038V15.6265C4.07003 15.6265 3.60504 15.6265 3.22354 15.5268C2.18827 15.2563 1.37962 14.4678 1.10222 13.4583C1 13.0863 1 12.6329 1 11.7261V5.68047Z" stroke="white" stroke-width="2" stroke-linecap="round" stroke-linejoin="round"/>
</svg>
