<svg width="20" height="22" viewBox="0 0 20 22" fill="none" xmlns="http://www.w3.org/2000/svg">
<path d="M7.27516 20C8.00136 20.6224 8.95526 21 10 21C11.0447 21 11.9986 20.6224 12.7248 20M16.1792 7C16.1792 5.4087 15.5282 3.88258 14.3693 2.75736C13.2105 1.63214 11.6388 1 10 1C8.36118 1 6.78948 1.63214 5.63066 2.75736C4.47184 3.88258 3.82083 5.4087 3.82083 7C3.82083 10.0902 3.01802 12.206 2.12121 13.6054C1.36474 14.7859 0.986499 15.3761 1.00037 15.5408C1.01572 15.7231 1.0555 15.7926 1.2068 15.9016C1.34345 16 1.95944 16 3.19143 16H16.8086C18.0406 16 18.6565 16 18.7932 15.9016C18.9445 15.7926 18.9843 15.7231 18.9996 15.5408C19.0135 15.3761 18.6353 14.7859 17.8788 13.6054C16.982 12.206 16.1792 10.0902 16.1792 7Z" stroke="white" stroke-width="2" stroke-linecap="round" stroke-linejoin="round"/>
</svg>
