<svg width="20" height="20" viewBox="0 0 20 20" fill="none" xmlns="http://www.w3.org/2000/svg">
<path d="M12.7 1.41202C11.8477 1.14432 10.9407 1 10 1C5.02944 1 1 5.02944 1 10C1 14.9706 5.02944 19 10 19C14.9706 19 19 14.9706 19 10C19 8.45621 18.6113 7.0032 17.9264 5.7335M14.5 4.375H14.5045M8.65005 18.8994L8.65014 16.9164C8.65015 16.809 8.68857 16.7052 8.75848 16.6236L10.9957 14.0135C11.1795 13.799 11.1226 13.4701 10.8773 13.3299L8.30668 11.861C8.23684 11.8211 8.17897 11.7631 8.1391 11.6933L6.46341 8.75677C6.3762 8.60394 6.20792 8.51596 6.03265 8.53157L1.05777 8.97467M18.1 4.6C18.1 6.58822 16.3 8.2 14.5 10C12.7 8.2 10.9 6.58822 10.9 4.6C10.9 2.61177 12.5118 1 14.5 1C16.4882 1 18.1 2.61177 18.1 4.6ZM14.725 4.375C14.725 4.49926 14.6243 4.6 14.5 4.6C14.3757 4.6 14.275 4.49926 14.275 4.375C14.275 4.25074 14.3757 4.15 14.5 4.15C14.6243 4.15 14.725 4.25074 14.725 4.375Z" stroke="white" stroke-width="2" stroke-linecap="round" stroke-linejoin="round"/>
</svg>
