<svg width="316" height="190" viewBox="0 0 316 190" fill="none" xmlns="http://www.w3.org/2000/svg">
<g clip-path="url(#clip0_5_699)">
<rect width="316" height="190" fill="white"/>
<g filter="url(#filter0_bd_5_699)">
<g clip-path="url(#clip1_5_699)">
<rect width="316" height="190" rx="20" fill="url(#paint0_linear_5_699)"/>
<g filter="url(#filter1_f_5_699)">
<path opacity="0.3" d="M-16 64C-16 19.8172 19.8172 -16 64 -16V-16V64H-16V64Z" fill="#EE46BC"/>
<path opacity="0.3" d="M64 -16V-16C108.183 -16 144 19.8172 144 64V64H64V-16Z" fill="#EF6820"/>
<path opacity="0.3" d="M-16 64H64V144V144C19.8172 144 -16 108.183 -16 64V64Z" fill="#2E90FA"/>
<path opacity="0.3" d="M64 64H144V64C144 108.183 108.183 144 64 144V144V64Z" fill="#12B76A"/>
</g>
</g>
<rect x="0.5" y="0.5" width="315" height="189" rx="19.5" stroke="url(#paint1_linear_5_699)"/>
</g>
</g>
<defs>
<filter id="filter0_bd_5_699" x="-12" y="-12" width="352" height="228" filterUnits="userSpaceOnUse" color-interpolation-filters="sRGB">
<feFlood flood-opacity="0" result="BackgroundImageFix"/>
<feGaussianBlur in="BackgroundImageFix" stdDeviation="6"/>
<feComposite in2="SourceAlpha" operator="in" result="effect1_backgroundBlur_5_699"/>
<feColorMatrix in="SourceAlpha" type="matrix" values="0 0 0 0 0 0 0 0 0 0 0 0 0 0 0 0 0 0 127 0" result="hardAlpha"/>
<feOffset dx="8" dy="10"/>
<feGaussianBlur stdDeviation="8"/>
<feColorMatrix type="matrix" values="0 0 0 0 0 0 0 0 0 0 0 0 0 0 0 0 0 0 0.05 0"/>
<feBlend mode="normal" in2="effect1_backgroundBlur_5_699" result="effect2_dropShadow_5_699"/>
<feBlend mode="normal" in="SourceGraphic" in2="effect2_dropShadow_5_699" result="shape"/>
</filter>
<filter id="filter1_f_5_699" x="-144" y="-144" width="416" height="416" filterUnits="userSpaceOnUse" color-interpolation-filters="sRGB">
<feFlood flood-opacity="0" result="BackgroundImageFix"/>
<feBlend mode="normal" in="SourceGraphic" in2="BackgroundImageFix" result="shape"/>
<feGaussianBlur stdDeviation="64" result="effect1_foregroundBlur_5_699"/>
</filter>
<linearGradient id="paint0_linear_5_699" x1="15.7873" y1="2.05045e-05" x2="341.34" y2="228.824" gradientUnits="userSpaceOnUse">
<stop stop-color="white" stop-opacity="0.51"/>
<stop offset="1" stop-color="white" stop-opacity="0"/>
</linearGradient>
<linearGradient id="paint1_linear_5_699" x1="1.78532e-07" y1="8.02303" x2="308.782" y2="201.518" gradientUnits="userSpaceOnUse">
<stop stop-color="white"/>
<stop offset="1" stop-color="white" stop-opacity="0.2"/>
</linearGradient>
<clipPath id="clip0_5_699">
<rect width="316" height="190" fill="white"/>
</clipPath>
<clipPath id="clip1_5_699">
<rect width="316" height="190" rx="20" fill="white"/>
</clipPath>
</defs>
</svg>
