<svg width="4" height="16" viewBox="0 0 4 16" fill="none" xmlns="http://www.w3.org/2000/svg">
<path d="M2.00008 8.83333C2.46032 8.83333 2.83341 8.46023 2.83341 7.99999C2.83341 7.53976 2.46032 7.16666 2.00008 7.16666C1.53984 7.16666 1.16675 7.53976 1.16675 7.99999C1.16675 8.46023 1.53984 8.83333 2.00008 8.83333Z" stroke="#98A2B3" stroke-width="1.66667" stroke-linecap="round" stroke-linejoin="round"/>
<path d="M2.00008 2.99999C2.46032 2.99999 2.83341 2.6269 2.83341 2.16666C2.83341 1.70642 2.46032 1.33333 2.00008 1.33333C1.53984 1.33333 1.16675 1.70642 1.16675 2.16666C1.16675 2.6269 1.53984 2.99999 2.00008 2.99999Z" stroke="#98A2B3" stroke-width="1.66667" stroke-linecap="round" stroke-linejoin="round"/>
<path d="M2.00008 14.6667C2.46032 14.6667 2.83341 14.2936 2.83341 13.8333C2.83341 13.3731 2.46032 13 2.00008 13C1.53984 13 1.16675 13.3731 1.16675 13.8333C1.16675 14.2936 1.53984 14.6667 2.00008 14.6667Z" stroke="#98A2B3" stroke-width="1.66667" stroke-linecap="round" stroke-linejoin="round"/>
</svg>
