<svg width="22" height="17" viewBox="0 0 22 17" fill="none" xmlns="http://www.w3.org/2000/svg">
<path d="M15.2426 4.25738C17.5858 6.60053 17.5858 10.3995 15.2426 12.7427M6.75736 12.7426C4.41421 10.3995 4.41421 6.60049 6.75736 4.25735M3.92893 15.5711C0.0236893 11.6658 0.0236893 5.3342 3.92893 1.42896M18.0711 1.429C21.9763 5.33424 21.9763 11.6659 18.0711 15.5711M13 8.50002C13 9.60459 12.1046 10.5 11 10.5C9.89543 10.5 9 9.60459 9 8.50002C9 7.39545 9.89543 6.50002 11 6.50002C12.1046 6.50002 13 7.39545 13 8.50002Z" stroke="#50915B" stroke-width="2" stroke-linecap="round" stroke-linejoin="round"/>
</svg>
