<svg width="22" height="23" viewBox="0 0 22 23" fill="none" xmlns="http://www.w3.org/2000/svg">
<path d="M8.13626 8.63628L3.92893 4.42896M3.92893 18.5711L8.16797 14.3321M13.8611 14.3638L18.0684 18.5711M18.0684 4.42896L13.8287 8.66862M21 11.5C21 17.0228 16.5228 21.5 11 21.5C5.47715 21.5 1 17.0228 1 11.5C1 5.97715 5.47715 1.5 11 1.5C16.5228 1.5 21 5.97715 21 11.5ZM15 11.5C15 13.7091 13.2091 15.5 11 15.5C8.79086 15.5 7 13.7091 7 11.5C7 9.29086 8.79086 7.5 11 7.5C13.2091 7.5 15 9.29086 15 11.5Z" stroke="#50915B" stroke-width="2" stroke-linecap="round" stroke-linejoin="round"/>
</svg>
