<svg width="22" height="23" viewBox="0 0 22 23" fill="none" xmlns="http://www.w3.org/2000/svg">
<path d="M1 11.4999L10.6422 16.3211C10.7734 16.3866 10.839 16.4194 10.9078 16.4324C10.9687 16.4438 11.0313 16.4438 11.0922 16.4324C11.161 16.4194 11.2266 16.3866 11.3578 16.3211L21 11.4999M1 16.4999L10.6422 21.3211C10.7734 21.3866 10.839 21.4194 10.9078 21.4324C10.9687 21.4438 11.0313 21.4438 11.0922 21.4324C11.161 21.4194 11.2266 21.3866 11.3578 21.3211L21 16.4999M1 6.49994L10.6422 1.67883C10.7734 1.61324 10.839 1.58044 10.9078 1.56753C10.9687 1.5561 11.0313 1.5561 11.0922 1.56753C11.161 1.58044 11.2266 1.61324 11.3578 1.67883L21 6.49994L11.3578 11.3211C11.2266 11.3866 11.161 11.4194 11.0922 11.4324C11.0313 11.4438 10.9687 11.4438 10.9078 11.4324C10.839 11.4194 10.7734 11.3866 10.6422 11.3211L1 6.49994Z" stroke="#50915B" stroke-width="2" stroke-linecap="round" stroke-linejoin="round"/>
</svg>
