<svg width="22" height="23" viewBox="0 0 22 23" fill="none" xmlns="http://www.w3.org/2000/svg">
<path d="M11 8.49994L3.06386 13.6584C2.37601 14.1055 2.03209 14.3291 1.91297 14.6126C1.80888 14.8603 1.80888 15.1396 1.91297 15.3873M11 8.49994L18.9361 13.6584C19.624 14.1055 19.9679 14.3291 20.087 14.6126C20.1911 14.8603 20.1911 15.1396 20.087 15.3873M11 8.49994V1.99994M11 14.4999L3.06386 9.34145C2.37601 8.89435 2.03209 8.6708 1.91297 8.3873C1.80888 8.13955 1.80888 7.86033 1.91297 7.61258M11 14.4999L18.9361 9.34145C19.624 8.89435 19.9679 8.6708 20.087 8.3873C20.1911 8.13955 20.1911 7.86033 20.087 7.61258M11 14.4999V20.9999M20.272 15.4732L11.872 20.9332C11.5564 21.1383 11.3985 21.2409 11.2285 21.2808C11.0782 21.3161 10.9218 21.3161 10.7715 21.2808C10.6015 21.2409 10.4436 21.1383 10.128 20.9332L1.72802 15.4732C1.46201 15.3002 1.32901 15.2138 1.23265 15.0985C1.14735 14.9964 1.08327 14.8783 1.04417 14.7512C1 14.6075 1 14.4489 1 14.1316V8.86824C1 8.55098 1 8.39235 1.04417 8.24871C1.08327 8.12155 1.14735 8.00348 1.23265 7.9014C1.32901 7.78608 1.46201 7.69963 1.72802 7.52673L10.128 2.06673C10.4436 1.86157 10.6015 1.759 10.7715 1.71909C10.9218 1.68381 11.0782 1.68381 11.2285 1.71909C11.3985 1.759 11.5564 1.86157 11.872 2.06673L20.272 7.52673C20.538 7.69963 20.671 7.78608 20.7674 7.9014C20.8527 8.00348 20.9167 8.12155 20.9558 8.24871C21 8.39235 21 8.55098 21 8.86824V14.1316C21 14.4489 21 14.6075 20.9558 14.7512C20.9167 14.8783 20.8527 14.9964 20.7674 15.0985C20.671 15.2138 20.538 15.3002 20.272 15.4732Z" stroke="#50915B" stroke-width="2" stroke-linecap="round" stroke-linejoin="round"/>
</svg>
