<svg width="18" height="23" viewBox="0 0 18 23" fill="none" xmlns="http://www.w3.org/2000/svg">
<path d="M17 18.5V15.5H4C2.34315 15.5 1 16.8431 1 18.5M5.8 21.5H13.8C14.9201 21.5 15.4802 21.5 15.908 21.282C16.2843 21.0903 16.5903 20.7843 16.782 20.408C17 19.9802 17 19.4201 17 18.3V4.7C17 3.57989 17 3.01984 16.782 2.59202C16.5903 2.21569 16.2843 1.90973 15.908 1.71799C15.4802 1.5 14.9201 1.5 13.8 1.5H5.8C4.11984 1.5 3.27976 1.5 2.63803 1.82698C2.07354 2.1146 1.6146 2.57354 1.32698 3.13803C1 3.77976 1 4.61984 1 6.3V16.7C1 18.3802 1 19.2202 1.32698 19.862C1.6146 20.4265 2.07354 20.8854 2.63803 21.173C3.27976 21.5 4.11984 21.5 5.8 21.5Z" stroke="#50915B" stroke-width="2" stroke-linecap="round" stroke-linejoin="round"/>
</svg>
