<svg width="22" height="21" viewBox="0 0 22 21" fill="none" xmlns="http://www.w3.org/2000/svg">
<path d="M11 19.5L10.8999 19.3499C10.2053 18.308 9.85798 17.787 9.3991 17.4098C8.99286 17.0759 8.52476 16.8254 8.02161 16.6726C7.45325 16.5 6.82711 16.5 5.57482 16.5H4.2C3.07989 16.5 2.51984 16.5 2.09202 16.282C1.71569 16.0903 1.40973 15.7843 1.21799 15.408C1 14.9802 1 14.4201 1 13.3V4.7C1 3.57989 1 3.01984 1.21799 2.59202C1.40973 2.21569 1.71569 1.90973 2.09202 1.71799C2.51984 1.5 3.07989 1.5 4.2 1.5H4.6C6.84021 1.5 7.96031 1.5 8.81596 1.93597C9.56861 2.31947 10.1805 2.93139 10.564 3.68404C11 4.53968 11 5.65979 11 7.9M11 19.5V7.9M11 19.5L11.1001 19.3499C11.7947 18.308 12.142 17.787 12.6009 17.4098C13.0071 17.0759 13.4752 16.8254 13.9784 16.6726C14.5467 16.5 15.1729 16.5 16.4252 16.5H17.8C18.9201 16.5 19.4802 16.5 19.908 16.282C20.2843 16.0903 20.5903 15.7843 20.782 15.408C21 14.9802 21 14.4201 21 13.3V4.7C21 3.57989 21 3.01984 20.782 2.59202C20.5903 2.21569 20.2843 1.90973 19.908 1.71799C19.4802 1.5 18.9201 1.5 17.8 1.5H17.4C15.1598 1.5 14.0397 1.5 13.184 1.93597C12.4314 2.31947 11.8195 2.93139 11.436 3.68404C11 4.53968 11 5.65979 11 7.9" stroke="#50915B" stroke-width="2" stroke-linecap="round" stroke-linejoin="round"/>
</svg>
