<svg width="20" height="23" viewBox="0 0 20 23" fill="none" xmlns="http://www.w3.org/2000/svg">
<path d="M18.5 6.77771L9.99997 11.4999M9.99997 11.4999L1.49997 6.77771M9.99997 11.4999L10 21M19 15.5585V7.44141C19 7.09876 19 6.92744 18.9495 6.77464C18.9049 6.63947 18.8318 6.51539 18.7354 6.4107C18.6263 6.29236 18.4766 6.20916 18.177 6.04276L10.777 1.93164C10.4934 1.77409 10.3516 1.69531 10.2015 1.66442C10.0685 1.63709 9.93146 1.63709 9.79855 1.66442C9.64838 1.69531 9.50658 1.77409 9.22297 1.93165L1.82297 6.04276C1.52345 6.20916 1.37369 6.29236 1.26463 6.4107C1.16816 6.51539 1.09515 6.63947 1.05048 6.77465C1 6.92745 1 7.09877 1 7.44141V15.5585C1 15.9012 1 16.0725 1.05048 16.2253C1.09515 16.3605 1.16816 16.4845 1.26463 16.5892C1.37369 16.7076 1.52345 16.7908 1.82297 16.9572L9.22297 21.0683C9.50658 21.2258 9.64838 21.3046 9.79855 21.3355C9.93146 21.3628 10.0685 21.3628 10.2015 21.3355C10.3516 21.3046 10.4934 21.2258 10.777 21.0683L18.177 16.9572C18.4766 16.7908 18.6263 16.7076 18.7354 16.5892C18.8318 16.4845 18.9049 16.3605 18.9495 16.2253C19 16.0725 19 15.9012 19 15.5585Z" stroke="#50915B" stroke-width="2" stroke-linecap="round" stroke-linejoin="round"/>
</svg>
