<svg width="56" height="56" viewBox="0 0 56 56" fill="none" xmlns="http://www.w3.org/2000/svg">
<rect x="4" y="4" width="48" height="48" rx="24" fill="#BDDBC2"/>
<path d="M28 31C24.6863 31 22 28.3137 22 25V19.4444C22 19.0306 22 18.8237 22.0603 18.658C22.1614 18.3802 22.3802 18.1614 22.658 18.0603C22.8237 18 23.0306 18 23.4444 18H32.5556C32.9694 18 33.1763 18 33.342 18.0603C33.6198 18.1614 33.8386 18.3802 33.9397 18.658C34 18.8237 34 19.0306 34 19.4444V25C34 28.3137 31.3137 31 28 31ZM28 31V34M34 20H36.5C36.9659 20 37.1989 20 37.3827 20.0761C37.6277 20.1776 37.8224 20.3723 37.9239 20.6173C38 20.8011 38 21.0341 38 21.5V22C38 22.93 38 23.395 37.8978 23.7765C37.6204 24.8117 36.8117 25.6204 35.7765 25.8978C35.395 26 34.93 26 34 26M22 20H19.5C19.0341 20 18.8011 20 18.6173 20.0761C18.3723 20.1776 18.1776 20.3723 18.0761 20.6173C18 20.8011 18 21.0341 18 21.5V22C18 22.93 18 23.395 18.1022 23.7765C18.3796 24.8117 19.1883 25.6204 20.2235 25.8978C20.605 26 21.07 26 22 26M23.4444 38H32.5556C32.801 38 33 37.801 33 37.5556C33 35.5919 31.4081 34 29.4444 34H26.5556C24.5919 34 23 35.5919 23 37.5556C23 37.801 23.199 38 23.4444 38Z" stroke="#50915B" stroke-width="2" stroke-linecap="round" stroke-linejoin="round"/>
<rect x="4" y="4" width="48" height="48" rx="24" stroke="#D8E9DA" stroke-width="8"/>
</svg>
