<svg width="56" height="56" viewBox="0 0 56 56" fill="none" xmlns="http://www.w3.org/2000/svg">
<rect width="56" height="56" rx="28" fill="#BDDBC2"/>
<path d="M23.3333 17.5L32.6667 38.5M17.5 33.8333L28 28M23.1 38.5H32.9C34.8602 38.5 35.8403 38.5 36.589 38.1185C37.2475 37.783 37.783 37.2475 38.1185 36.589C38.5 35.8403 38.5 34.8602 38.5 32.9V23.1C38.5 21.1398 38.5 20.1597 38.1185 19.411C37.783 18.7525 37.2475 18.217 36.589 17.8815C35.8403 17.5 34.8602 17.5 32.9 17.5H23.1C21.1398 17.5 20.1597 17.5 19.411 17.8815C18.7525 18.217 18.217 18.7525 17.8815 19.411C17.5 20.1597 17.5 21.1398 17.5 23.1V32.9C17.5 34.8602 17.5 35.8403 17.8815 36.589C18.217 37.2475 18.7525 37.783 19.411 38.1185C20.1597 38.5 21.1398 38.5 23.1 38.5Z" stroke="#50915B" stroke-width="2" stroke-linecap="round" stroke-linejoin="round"/>
</svg>
