<svg width="317" height="155" viewBox="0 0 317 155" fill="none" xmlns="http://www.w3.org/2000/svg">
<path d="M308.654 69.2268C309.704 67.9449 311.594 67.7565 312.876 68.8061C314.158 69.8557 314.346 71.7459 313.296 73.0278L308.654 69.2268ZM125.589 36.4204L125.868 33.4334L125.869 33.4335L125.589 36.4204ZM150.236 143.724L148.479 141.293L148.479 141.292L150.236 143.724ZM0.917713 3.27531C1.01701 1.62142 2.43824 0.361181 4.09213 0.460502C5.74599 0.559804 7.00622 1.98104 6.90692 3.63493L0.917713 3.27531ZM316.512 95.0444C316.567 96.7004 315.269 98.0872 313.613 98.142C311.957 98.1967 310.57 96.8987 310.515 95.2427L316.512 95.0444ZM312.66 69.3439L312.944 66.3574C314.447 66.5001 315.609 67.7366 315.659 69.2448L312.66 69.3439ZM286.295 69.3074C284.67 68.9805 283.619 67.3988 283.945 65.7745C284.272 64.1502 285.854 63.0984 287.478 63.4253L286.295 69.3074ZM310.975 71.1273C313.296 73.0278 313.295 73.0289 313.294 73.0303C313.294 73.0313 313.292 73.0331 313.29 73.035C313.287 73.0388 313.283 73.044 313.278 73.0506C313.267 73.0639 313.251 73.0829 313.231 73.1073C313.19 73.1563 313.131 73.2275 313.054 73.32C312.899 73.5051 312.672 73.7757 312.373 74.1252C311.776 74.8243 310.897 75.8392 309.754 77.1173C307.468 79.6731 304.125 83.2834 299.881 87.5257C291.399 96.0037 279.281 107.038 264.76 117.223C235.869 137.488 196.675 154.93 157.571 140.779L159.613 135.138C195.851 148.251 232.849 132.278 261.314 112.311C275.471 102.381 287.322 91.5948 295.639 83.2819C299.795 79.1287 303.06 75.6008 305.282 73.1172C306.392 71.8756 307.241 70.8956 307.81 70.2296C308.094 69.8966 308.308 69.6422 308.45 69.4728C308.52 69.3882 308.573 69.3248 308.607 69.2835C308.624 69.2629 308.637 69.2478 308.644 69.2383C308.648 69.2336 308.651 69.2302 308.653 69.2283C308.653 69.2273 308.654 69.227 308.654 69.2265C308.654 69.2265 308.654 69.2268 310.975 71.1273ZM157.571 140.779C118.934 126.798 101.393 99.7461 98.163 76.1849C96.5578 64.4757 98.4843 53.5141 103.294 45.5627C108.156 37.5255 116.052 32.5155 125.868 33.4334L125.31 39.4074C118.19 38.7417 112.326 42.224 108.428 48.6682C104.478 55.1981 102.646 64.7069 104.107 75.37C107.011 96.5536 122.908 121.855 159.613 135.138L157.571 140.779ZM125.869 33.4335C135.254 34.3138 144.636 39.72 152.578 47.5065C160.556 55.3284 167.323 65.7783 171.438 77.2421C179.68 100.207 177.378 127.813 151.993 146.156L148.479 141.292C171.099 124.948 173.407 100.49 165.79 79.2689C161.975 68.6397 155.696 58.9662 148.377 51.7909C141.023 44.5801 132.856 40.1152 125.309 39.4073L125.869 33.4335ZM151.993 146.155C139.06 155.503 122.569 156.895 105.593 152.576C88.6214 148.258 70.8875 138.182 54.9736 124.122C23.1795 96.0314 -1.97525 51.4552 0.917713 3.27531L6.90692 3.63493C4.1513 49.5278 28.1638 92.4288 58.9463 119.626C74.3207 133.209 91.2274 142.73 107.073 146.762C122.915 150.792 137.417 149.288 148.479 141.293L151.993 146.155ZM310.515 95.2427L309.662 69.4431L315.659 69.2448L316.512 95.0444L310.515 95.2427ZM312.66 69.3439C312.377 72.3305 312.377 72.3305 312.376 72.3305C312.376 72.3304 312.376 72.3304 312.376 72.3304C312.375 72.3303 312.374 72.3302 312.373 72.3301C312.37 72.3298 312.366 72.3295 312.361 72.329C312.351 72.328 312.336 72.3266 312.316 72.3247C312.276 72.3209 312.217 72.3152 312.139 72.3078C311.985 72.293 311.758 72.2712 311.468 72.2431C310.888 72.1869 310.054 72.1056 309.037 72.0049C307.005 71.8035 304.243 71.5245 301.322 71.2139C295.566 70.6015 288.953 69.8424 286.295 69.3074L287.478 63.4253C289.797 63.8918 296.071 64.6214 301.957 65.2475C304.859 65.5561 307.606 65.8337 309.629 66.0341C310.64 66.1343 311.47 66.2152 312.046 66.271C312.334 66.2989 312.559 66.3206 312.712 66.3352C312.788 66.3425 312.847 66.3481 312.886 66.3518C312.905 66.3537 312.92 66.3551 312.93 66.356C312.935 66.3565 312.938 66.3568 312.941 66.3571C312.942 66.3572 312.943 66.3573 312.943 66.3573C312.944 66.3573 312.944 66.3574 312.944 66.3574C312.944 66.3574 312.944 66.3574 312.66 69.3439Z" fill="#61A86D"/>
</svg>