<svg width="45" height="32" viewBox="0 0 45 32" fill="none" xmlns="http://www.w3.org/2000/svg">
<rect x="0.702637" y="0.708862" width="43.3249" height="30.5823" rx="3.82278" fill="white" fill-opacity="0.1"/>
<path fill-rule="evenodd" clip-rule="evenodd" d="M28.1976 24.1934C32.9696 24.1934 36.838 20.371 36.838 15.6558C36.838 10.9407 32.9696 7.11829 28.1976 7.11829C26.059 7.11829 24.1018 7.88602 22.5931 9.15778C21.0843 7.88602 19.1271 7.11829 16.9885 7.11829C12.2166 7.11829 8.34814 10.9407 8.34814 15.6558C8.34814 20.371 12.2166 24.1934 16.9885 24.1934C19.1271 24.1934 21.0843 23.4257 22.5931 22.1539C24.1019 23.4257 26.059 24.1934 28.1976 24.1934Z" fill="#ED0006"/>
<path fill-rule="evenodd" clip-rule="evenodd" d="M22.593 22.1539C24.4508 20.5879 25.6288 18.2578 25.6288 15.6558C25.6288 13.0539 24.4508 10.7237 22.593 9.15779C24.1018 7.88603 26.059 7.11829 28.1976 7.11829C32.9695 7.11829 36.838 10.9407 36.838 15.6558C36.838 20.371 32.9695 24.1934 28.1976 24.1934C26.059 24.1934 24.1018 23.4256 22.593 22.1539Z" fill="#F9A000"/>
<path fill-rule="evenodd" clip-rule="evenodd" d="M22.5929 22.1539C24.4507 20.588 25.6287 18.2579 25.6287 15.6559C25.6287 13.0539 24.4507 10.7238 22.5929 9.15784C20.7351 10.7238 19.5571 13.0539 19.5571 15.6559C19.5571 18.2579 20.7351 20.588 22.5929 22.1539Z" fill="#FF5E00"/>
</svg>
